# xmcd
#
# Track frame offsets: 
#        150
#        19457
#        37330
#        59165
#        83035
#        103802
#        125990
#        148842
#
# Disc length: 2251 seconds
#
# Revision: 1
# Processed by: cddbd v1.5.1PL2 Copyright (c) Steve Scherf et al.
# Submitted via: ExactAudioCopy v0.95b3
#
DISCID=8308c908
DTITLE=Max Bennet and Freeway - Images
DYEAR=1989
DGENRE=Jazz
TTITLE0=Dreamwalker
TTITLE1=When I Think Of You
TTITLE2=Same Ol' Song
TTITLE3=Takin' My Time
TTITLE4=Winds of Tibet
TTITLE5=The Way You Make Me Feel
TTITLE6=Fancy Pants
TTITLE7=Jack, The Giant Killer
EXTD=YEAR: 1989
EXTT0=
EXTT1=
EXTT2=
EXTT3=
EXTT4=
EXTT5=
EXTT6=
EXTT7=
PLAYORDER=
